<?xml version="1.0"?><svg version="1.2" baseProfile="tiny-ps" viewBox="0 0 300 300" xmlns="http://www.w3.org/2000/svg" xmlns:xlink="http://www.w3.org/1999/xlink"><title>BeCyberCommunity</title><g><g fill="#fff" transform="matrix(.1 0 0 -.1 0 300)"><path d="M1875 2294c-11-3-49-12-84-20-115-28-232-89-316-166-16-16-33-28-37-28-3 0-20 17-37 39-17 21-55 55-85 76l-55 38-83 25-83 25-418 5-417 4V699l442 4 443 4 60 19 60 20 48-30 48-30h72c93-1 119 7 168 51l40 36 35-16c19-9 68-26 110-37l75-19 87-7 87-6 93 11 92 11 85 31 85 31 60 39c146 94 256 238 298 392l10 37h-423l-20-36c-26-49-87-101-154-132l-56-26h-200l-66 32-66 32-41 44-41 44-30 59-29 59-11 59c-22 119-9 253 34 351l23 53 43 46c50 54 105 89 175 110l49 15h122l55-19c30-10 73-31 96-45l41-25 35-47c20-26 36-51 36-55v-9h215c118 0 215 2 215 5s-14 41-30 84l-30 78-41 59c-101 145-217 230-396 290l-78 26-145 4c-80 1-154 1-165-2zm-875-346 44-23 19-27 20-27 1-58v-58l-16-30-16-30-42-23-42-22H640v320h316l44-22zm13-602c46-17 74-40 94-80l16-30-1-53v-53l-19-33-18-32-45-22-44-23H640v163c0 90 3 167 7 170 3 4 79 7 167 7l161-1 38-13zm1257 220c0-3 11-26 25-52l25-47v-48l17 3 18 3 6 35c3 19 13 49 22 67 21 40 21 43-2 43h-19l-13-32-13-32-13 32-13 32h-20c-11 0-20-2-20-4zm144-10c-3-7-4-40-2-72l3-59 37-3 37-3 21 11 20 11v19c0 10-5 22-10 25l-10 6 11 21 11 20-14 13-13 13-43 5-43 5-5-12zm76-31v-15h-40v30h40v-15zm-2-57c-3-7-12-14-21-16l-17-3v31h42l-4-12zm62 26v-75l42 3 41 3 4 12 4 12-27 3-27 3-5 13-4 12h52v29l-22 3-23 3v20l28 3 27 3v29h-90v-76zm110-1v-74l17 3 17 3 6 24 5 24 12-27 13-26h20c24 0 25 8 5 37l-15 21 15 12c18 15 19 44 3 57-7 6-32 13-55 16l-43 5v-75zm74 32 5-15h-39v30h14c8 0 16-7 20-15z"/></g><g fill="#ffe538" transform="matrix(.1 0 0 -.1 0 300)"><path d="M1875 2294c-11-3-49-12-84-20-174-42-331-149-430-294-51-74-76-124-107-217l-27-78-4-146-5-146 16-84 17-84 33-77 33-77-34-33c-41-39-58-69-67-120l-7-38 12-42c15-59 42-93 96-125l46-27h71c92-1 118 7 167 51l40 36 35-16c19-9 68-26 110-37l75-19 87-7 87-6 93 11 92 11 85 31 85 31 60 39c146 94 256 238 298 392l10 37h-423l-20-36c-26-49-87-101-154-132l-56-26h-200l-66 32-66 32-41 44-41 44-30 59-29 59-11 59c-22 119-9 253 34 351l23 53 43 46c50 54 105 89 175 110l49 15h122l55-19c30-10 73-31 96-45l41-25 35-47c20-26 36-51 36-55v-9h215c118 0 215 2 215 5s-14 41-30 84l-30 78-41 59c-101 145-217 230-396 290l-78 26-145 4c-80 1-154 1-165-2zm-1427-11c106-2 277-2 380 0 103 1 16 2-193 2s-293-1-187-2zm265-640c37-2 97-2 135 0l67 3H645l68-3zm1557-77c0-3 11-26 25-52l25-47v-48l17 3 18 3 6 35c3 19 13 49 22 67 21 40 21 43-2 43h-19l-13-32-13-32-13 32-13 32h-20c-11 0-20-2-20-4zm144-10c-3-7-4-40-2-72l3-59 37-3 37-3 21 11 20 11v19c0 10-5 22-10 25l-10 6 11 21 11 20-14 13-13 13-43 5-43 5-5-12zm76-31v-15h-40v30h40v-15zm-2-57c-3-7-12-14-21-16l-17-3v31h42l-4-12zm62 26v-75l42 3 41 3 4 12 4 12-27 3-27 3-5 13-4 12h52v29l-22 3-23 3v20l28 3 27 3v29h-90v-76zm110-1v-74l17 3 17 3 6 24 5 24 12-27 13-26h20c24 0 25 8 5 37l-15 21 15 12c18 15 19 44 3 57-7 6-32 13-55 16l-43 5v-75zm74 32 5-15h-39v30h14c8 0 16-7 20-15zM647 1363l-5-8 101 3c184 4 204 8 55 10l-147 2-4-7z"/></g><g fill="#ded0cb" transform="matrix(.1 0 0 -.1 0 300)"><path d="M1875 2294c-11-3-49-12-84-20-174-42-331-149-430-294-51-74-76-124-107-217l-27-78-4-146-5-146 16-84 17-84 33-77 33-77-10-10c-5-5 9-1 32 11l42 21h128l46-23 46-22 23-32c46-62 58-138 31-203-8-20-14-37-13-38 17-14 80-38 142-54l77-20 87-7 87-6 93 11 92 11 85 31 85 31 60 39c146 94 256 238 298 392l10 37h-423l-20-36c-26-49-87-101-154-132l-56-26h-200l-66 32-66 32-41 44-41 44-30 59-29 59-11 59c-22 119-9 253 34 351l23 53 43 46c50 54 105 89 175 110l49 15h122l55-19c30-10 73-31 96-45l41-25 35-47c20-26 36-51 36-55v-9h215c118 0 215 2 215 5s-14 41-30 84l-30 78-41 59c-101 145-217 230-396 290l-78 26-145 4c-80 1-154 1-165-2zm-1427-11c106-2 277-2 380 0 103 1 16 2-193 2s-293-1-187-2zm265-640c37-2 97-2 135 0l67 3H645l68-3zm1557-77c0-3 11-26 25-52l25-47v-48l17 3 18 3 6 35c3 19 13 49 22 67 21 40 21 43-2 43h-19l-13-32-13-32-13 32-13 32h-20c-11 0-20-2-20-4zm144-10c-3-7-4-40-2-72l3-59 37-3 37-3 21 11 20 11v19c0 10-5 22-10 25l-10 6 11 21 11 20-14 13-13 13-43 5-43 5-5-12zm76-31v-15h-40v30h40v-15zm-2-57c-3-7-12-14-21-16l-17-3v31h42l-4-12zm62 26v-75l42 3 41 3 4 12 4 12-27 3-27 3-5 13-4 12h52v29l-22 3-23 3v20l28 3 27 3v29h-90v-76zm110-1v-74l17 3 17 3 6 24 5 24 12-27 13-26h20c24 0 25 8 5 37l-15 21 15 12c18 15 19 44 3 57-7 6-32 13-55 16l-43 5v-75zm74 32 5-15h-39v30h14c8 0 16-7 20-15zM647 1363l-5-8 101 3c184 4 204 8 55 10l-147 2-4-7zm565-478v-30l5 18c2 9 2 23 0 30l-5 12v-30z"/></g><g fill="#ff4c44" transform="matrix(.1 0 0 -.1 0 300)"><path d="M1875 2294c-11-3-49-12-84-20-75-18-195-72-248-110-127-93-226-230-279-387l-24-69-11-87-12-86 7-100 6-100 15-59c8-32 29-92 46-133l31-74 17 6c9 4 36 10 61 15l45 8 50-9 50-9 39-28 39-27 20-39 20-38 5-47 4-47-16-38c-9-22-15-40-14-41 17-14 80-38 142-54l77-20 87-7 87-6 93 11 92 11 85 31 85 31 60 39c146 94 256 238 298 392l10 37h-423l-20-36c-26-49-87-101-154-132l-56-26h-200l-66 32-66 32-41 44-41 44-30 59-29 59-11 59c-22 119-9 253 34 351l23 53 43 46c50 54 105 89 175 110l49 15h122l55-19c30-10 73-31 96-45l41-25 35-47c20-26 36-51 36-55v-9h215c118 0 215 2 215 5s-14 41-30 84l-30 78-41 59c-101 145-217 230-396 290l-78 26-145 4c-80 1-154 1-165-2zm395-728c0-3 11-26 25-52l25-47v-48l17 3 18 3 6 35c3 19 13 49 22 67 21 40 21 43-2 43h-19l-13-32-13-32-13 32-13 32h-20c-11 0-20-2-20-4zm144-10c-3-7-4-40-2-72l3-59 37-3 37-3 21 11 20 11v19c0 10-5 22-10 25l-10 6 11 21 11 20-14 13-13 13-43 5-43 5-5-12zm76-31v-15h-40v30h40v-15zm-2-57c-3-7-12-14-21-16l-17-3v31h42l-4-12zm62 26v-75l42 3 41 3 4 12 4 12-27 3-27 3-5 13-4 12h52v29l-22 3-23 3v20l28 3 27 3v29h-90v-76zm110-1v-74l17 3 17 3 6 24 5 24 12-27 13-26h20c24 0 25 8 5 37l-15 21 15 12c18 15 19 44 3 57-7 6-32 13-55 16l-43 5v-75zm73 33 6-14-15-6c-23-9-24-8-24 14v20h14c8 0 16-6 19-14z"/></g><g fill="#ff0202" transform="matrix(.1 0 0 -.1 0 300)"><path d="M1919 2295c-2-2-22-6-44-8-74-9-140-28-210-59l-70-32-68-50-69-51-60-80c-70-93-98-146-134-252l-27-78-4-146-5-146 17-84 17-84 30-73 30-73 32 8c17 4 63 8 102 8h71l41-27c22-15 53-44 68-64l29-37 3-67 4-67-16-31-16-30 33-12c111-41 132-46 252-60l79-9 91 9c88 9 99 11 160 25 100 25 228 99 313 183 47 47 121 148 136 187 5 11 19 48 32 83l24 62h-425l-12-28c-7-15-31-46-54-69l-41-41-56-28-57-28h-220l-58 28-58 29-42 41-42 41-31 60-32 60-13 60-12 60 1 75v75l15 62c19 77 56 145 110 202l42 44 65 31 65 31 82 3 82 4 53-17c29-10 72-31 95-46 47-32 113-106 113-126v-13h429l-19 53c-30 85-46 119-86 177-69 101-183 197-289 244-22 9-49 21-60 26-20 9-76 24-130 35-36 7-251 16-256 10zm505-734c-2-2-4-35-4-73v-68h28c15 0 37 3 49 6l21 6 5 18c2 10 1 24-4 31l-8 13 10 19 10 18-11 14-11 13-40 4c-22 2-42 2-45-1zm64-38-3-18h-30l-3 18-3 17h42l-3-17zm7-58v-10l-22-3-23-3v32l23-3 22-3v-10zm170 96c-3-2-5-35-5-73v-69l17 3 17 3 7 25 6 25 13-27 13-28h19c22 0 23 9 3 37l-15 21 15 12c18 15 19 44 3 58-14 10-86 21-93 13zm70-41v-15l-22-3-21-3 5 21 6 21 16-3 16-3v-15zm-455 35c0-3 9-23 20-45s20-51 20-65v-25h30v24c0 12 11 44 25 70l24 46h-36l-13-26-14-25-13 25-14 26h-14c-8 0-15-2-15-5zm270-66v-70l42 3 41 3 4 12 4 12-27 3-27 3-5 13-4 12h52v29l-22 3c-12 2-23 9-26 16l-4 12h62v20h-90v-71z"/></g></g></svg>